<svg width="11" height="11" viewBox="0 0 11 11" fill="none" xmlns="http://www.w3.org/2000/svg">
<path d="M5.49985 0C3.26705 0 1.45032 1.81673 1.45032 4.04976C1.45032 4.63222 1.56953 5.18834 1.80448 5.7028C2.81697 7.91838 4.75821 10.2576 5.32919 10.9216C5.37197 10.9713 5.43433 10.9999 5.49996 10.9999C5.56559 10.9999 5.62796 10.9713 5.67074 10.9216C6.24149 10.2577 8.18273 7.91861 9.19556 5.7028C9.43062 5.18834 9.54972 4.63222 9.54972 4.04976C9.5495 1.81673 7.73277 0 5.49985 0ZM5.49985 6.15321C4.33999 6.15321 3.39628 5.2095 3.39628 4.04965C3.39628 2.88968 4.33999 1.94596 5.49985 1.94596C6.65971 1.94596 7.60342 2.88968 7.60342 4.04965C7.60353 5.2095 6.65982 6.15321 5.49985 6.15321Z" fill="#A6A69E"/>
</svg>
