<svg width="13" height="20" viewBox="0 0 13 20" fill="none" xmlns="http://www.w3.org/2000/svg">
<path d="M10.4821 6.20261e-05C10.9804 -0.00348187 11.4683 0.147887 11.8832 0.434752C12.2982 0.721619 12.6214 1.13091 12.8113 1.61013C13.0011 2.08934 13.0491 2.61665 12.949 3.12442C12.8489 3.63218 12.6052 4.09726 12.2493 4.46001L6.86676 10.03L12.2493 15.6248C12.6911 16.1179 12.9316 16.7703 12.9201 17.4443C12.9087 18.1183 12.6462 18.7613 12.1881 19.238C11.7299 19.7147 11.1117 19.9877 10.4639 19.9996C9.81601 20.0115 9.189 19.7613 8.71494 19.3017L0.140898 10.3818C0.0962522 10.3358 0.0608157 10.281 0.0366328 10.2206C0.0124498 10.1602 -8.65886e-07 10.0954 -8.71605e-07 10.03C-8.77324e-07 9.96458 0.0124498 9.89981 0.0366327 9.83942C0.0608156 9.77904 0.0962521 9.72423 0.140898 9.67816L8.71494 0.758256C9.18454 0.272491 9.81991 -0.000103855 10.4821 6.20261e-05Z" fill="#A6A69E"/>
</svg>
