<svg width="59" height="59" viewBox="0 0 59 59" fill="none" xmlns="http://www.w3.org/2000/svg">
<circle cx="29.5" cy="29.5" r="29.5" fill="white" fill-opacity="0.2"/>
<path d="M31.4821 38.9999C31.9804 39.0035 32.4683 38.8521 32.8832 38.5652C33.2982 38.2784 33.6214 37.8691 33.8113 37.3899C34.0011 36.9107 34.0491 36.3833 33.949 35.8756C33.8489 35.3678 33.6052 34.9027 33.2493 34.54L27.8668 28.97L33.2493 23.3752C33.6911 22.8821 33.9316 22.2297 33.9201 21.5557C33.9087 20.8817 33.6463 20.2387 33.1881 19.762C32.7299 19.2853 32.1117 19.0123 31.4639 19.0004C30.816 18.9885 30.189 19.2387 29.7149 19.6983L21.1409 28.6182C21.0963 28.6642 21.0608 28.719 21.0366 28.7794C21.0125 28.8398 21 28.9046 21 28.97C21 29.0354 21.0125 29.1002 21.0366 29.1606C21.0608 29.221 21.0963 29.2758 21.1409 29.3218L29.7149 38.2417C30.1845 38.7275 30.8199 39.0001 31.4821 38.9999Z" fill="white"/>
</svg>
