<svg width="35" height="13" viewBox="0 0 35 13" fill="none" xmlns="http://www.w3.org/2000/svg">
<path d="M34.1923 7.21348H0.807671C0.410555 7.21348 0.0897217 6.89265 0.0897217 6.49553C0.0897217 6.09841 0.410555 5.77758 0.807671 5.77758H32.458L28.1009 1.42053C27.8205 1.14008 27.8205 0.684633 28.1009 0.404184C28.3814 0.123735 28.8368 0.123735 29.1173 0.404184L34.7016 5.98848C34.908 6.19489 34.9686 6.50226 34.8564 6.77149C34.7442 7.03848 34.4817 7.21348 34.1923 7.21348Z" fill="#A6A69E"/>
<path d="M28.6013 12.8045C28.4173 12.8045 28.2334 12.7349 28.0942 12.5936C27.8138 12.3131 27.8138 11.8577 28.0942 11.5772L33.6853 5.98622C33.9657 5.70577 34.4212 5.70577 34.7016 5.98622C34.9821 6.26666 34.9821 6.72211 34.7016 7.00256L29.1106 12.5936C28.9692 12.7349 28.7853 12.8045 28.6013 12.8045Z" fill="#A6A69E"/>
</svg>
