<svg width="22" height="19" viewBox="0 0 22 19" fill="none" xmlns="http://www.w3.org/2000/svg">
<path d="M21.0675 6.24912H16.5034L13.9432 0.386774C13.8007 0.0605987 13.4208 -0.0884596 13.0946 0.0540675C12.7684 0.196509 12.6194 0.57648 12.7619 0.902698L15.0968 6.24916H6.9032L9.23811 0.902698C9.38055 0.57648 9.23163 0.196552 8.90541 0.0540675C8.57923 -0.0884596 8.19922 0.0605128 8.05682 0.386774L5.49657 6.24912H0.932485C0.335435 6.24912 -0.107658 6.78962 0.0229672 7.35857L2.42642 17.827C2.52185 18.2427 2.89972 18.5382 3.33594 18.5382H18.6641C19.1003 18.5382 19.4781 18.2427 19.5736 17.827L21.977 7.35857C22.1077 6.78966 21.6645 6.24912 21.0675 6.24912ZM5.61783 8.22585C5.53172 8.22585 5.4442 8.20849 5.36019 8.17179C5.03397 8.02935 4.885 7.64942 5.02748 7.32316L5.51166 6.21448H6.91828L6.20878 7.83904C6.10303 8.08134 5.86628 8.22585 5.61783 8.22585ZM7.77735 15.1007C7.77735 15.4566 7.48877 15.7452 7.13282 15.7452C6.77687 15.7452 6.48829 15.4566 6.48829 15.1007V10.3741C6.48829 10.0182 6.77687 9.72958 7.13282 9.72958C7.48877 9.72958 7.77735 10.0182 7.77735 10.3741V15.1007ZM11.6445 15.1007C11.6445 15.4566 11.356 15.7452 11 15.7452C10.644 15.7452 10.3555 15.4566 10.3555 15.1007V10.3741C10.3555 10.0182 10.644 9.72958 11 9.72958C11.356 9.72958 11.6445 10.0182 11.6445 10.3741V15.1007ZM15.5117 15.1007C15.5117 15.4566 15.2231 15.7452 14.8672 15.7452C14.5112 15.7452 14.2227 15.4566 14.2227 15.1007V10.3741C14.2227 10.0182 14.5112 9.72958 14.8672 9.72958C15.2231 9.72958 15.5117 10.0182 15.5117 10.3741V15.1007ZM16.6398 8.17179C16.5558 8.20849 16.4683 8.22585 16.3822 8.22585C16.1337 8.22585 15.897 8.08139 15.7912 7.83909L15.0817 6.21453H16.4883L16.9725 7.3232C17.115 7.64942 16.966 8.02935 16.6398 8.17179Z" fill="white"/>
</svg>
