<svg width="63" height="63" viewBox="0 0 63 63" fill="none" xmlns="http://www.w3.org/2000/svg">
<circle cx="31.5" cy="31.5" r="31.5" fill="#A6A69E"/>
<circle cx="31.5" cy="31.5" r="29" stroke="white"/>
<path d="M42.0675 28.2491H37.5034L34.9432 22.3868C34.8007 22.0606 34.4208 21.9115 34.0946 22.0541C33.7684 22.1965 33.6194 22.5765 33.7619 22.9027L36.0968 28.2492H27.9032L30.2381 22.9027C30.3806 22.5765 30.2316 22.1966 29.9054 22.0541C29.5792 21.9115 29.1992 22.0605 29.0568 22.3868L26.4966 28.2491H21.9325C21.3354 28.2491 20.8923 28.7896 21.023 29.3586L23.4264 39.827C23.5219 40.2427 23.8997 40.5382 24.3359 40.5382H39.6641C40.1003 40.5382 40.4781 40.2427 40.5736 39.827L42.977 29.3586C43.1077 28.7897 42.6645 28.2491 42.0675 28.2491ZM26.6178 30.2258C26.5317 30.2258 26.4442 30.2085 26.3602 30.1718C26.034 30.0294 25.885 29.6494 26.0275 29.3232L26.5117 28.2145H27.9183L27.2088 29.839C27.103 30.0813 26.8663 30.2258 26.6178 30.2258ZM28.7774 37.1007C28.7774 37.4566 28.4888 37.7452 28.1328 37.7452C27.7769 37.7452 27.4883 37.4566 27.4883 37.1007V32.3741C27.4883 32.0182 27.7769 31.7296 28.1328 31.7296C28.4888 31.7296 28.7774 32.0182 28.7774 32.3741V37.1007ZM32.6445 37.1007C32.6445 37.4566 32.356 37.7452 32 37.7452C31.644 37.7452 31.3555 37.4566 31.3555 37.1007V32.3741C31.3555 32.0182 31.644 31.7296 32 31.7296C32.356 31.7296 32.6445 32.0182 32.6445 32.3741V37.1007ZM36.5117 37.1007C36.5117 37.4566 36.2231 37.7452 35.8672 37.7452C35.5112 37.7452 35.2227 37.4566 35.2227 37.1007V32.3741C35.2227 32.0182 35.5112 31.7296 35.8672 31.7296C36.2231 31.7296 36.5117 32.0182 36.5117 32.3741V37.1007ZM37.6398 30.1718C37.5558 30.2085 37.4683 30.2258 37.3822 30.2258C37.1337 30.2258 36.897 30.0814 36.7912 29.8391L36.0817 28.2145H37.4883L37.9725 29.3232C38.115 29.6494 37.966 30.0294 37.6398 30.1718Z" fill="white"/>
</svg>
