<svg width="20" height="20" viewBox="0 0 20 20" fill="none" xmlns="http://www.w3.org/2000/svg">
<g clip-path="url(#clip0_39_56)">
<path d="M19.1523 7.25451H15.0032L12.6757 1.9251C12.5462 1.62858 12.2008 1.49307 11.9042 1.62264C11.6076 1.75213 11.4722 2.09756 11.6017 2.39412L13.7244 7.25455H6.27565L8.3983 2.39412C8.5278 2.09756 8.39241 1.75217 8.09584 1.62264C7.79932 1.49307 7.45385 1.6285 7.3244 1.9251L4.9969 7.25451H0.847716C0.304942 7.25451 -0.0978708 7.74588 0.0208793 8.26311L2.20584 17.7799C2.2926 18.1578 2.63611 18.4264 3.03268 18.4264H16.9674C17.3639 18.4264 17.7074 18.1578 17.7942 17.7799L19.9792 8.26311C20.0979 7.74592 19.6951 7.25451 19.1523 7.25451ZM5.10713 9.05155C5.02885 9.05155 4.94928 9.03577 4.87291 9.00241C4.57635 8.87291 4.44092 8.52752 4.57045 8.23092L5.01061 7.22303H6.28936L5.64436 8.69991C5.54822 8.92018 5.33299 9.05155 5.10713 9.05155ZM7.07033 15.3014C7.07033 15.625 6.80799 15.8873 6.4844 15.8873C6.1608 15.8873 5.89846 15.625 5.89846 15.3014V11.0045C5.89846 10.6809 6.1608 10.4186 6.4844 10.4186C6.80799 10.4186 7.07033 10.6809 7.07033 11.0045V15.3014ZM10.586 15.3014C10.586 15.625 10.3236 15.8873 10 15.8873C9.67643 15.8873 9.41409 15.625 9.41409 15.3014V11.0045C9.41409 10.6809 9.67643 10.4186 10 10.4186C10.3236 10.4186 10.586 10.6809 10.586 11.0045V15.3014ZM14.1016 15.3014C14.1016 15.625 13.8392 15.8873 13.5157 15.8873C13.1921 15.8873 12.9297 15.625 12.9297 15.3014V11.0045C12.9297 10.6809 13.1921 10.4186 13.5157 10.4186C13.8392 10.4186 14.1016 10.6809 14.1016 11.0045V15.3014ZM15.1271 9.00241C15.0508 9.03577 14.9712 9.05155 14.8929 9.05155C14.6671 9.05155 14.4518 8.92022 14.3557 8.69994L13.7107 7.22307H14.9894L15.4296 8.23096C15.5591 8.52752 15.4237 8.87291 15.1271 9.00241Z" fill="white"/>
</g>
<defs>
<clipPath id="clip0_39_56">
<rect width="20" height="20" fill="white"/>
</clipPath>
</defs>
</svg>
