<svg width="24" height="26" viewBox="0 0 24 26" fill="none" xmlns="http://www.w3.org/2000/svg">
<path d="M12 26C18.396 26 23.6 20.796 23.6 14.4C23.6 8.27199 18.824 3.24403 12.8 2.83201V1.59997H13.7999C14.2399 1.59997 14.5999 1.23999 14.5999 0.799985C14.5999 0.35998 14.2399 0 13.7999 0H10.1999C9.75992 0 9.39994 0.35998 9.39994 0.799985C9.39994 1.23999 9.75992 1.59997 10.1999 1.59997H11.1999V2.83195C5.1759 3.24403 0.399902 8.27199 0.399902 14.4C0.399902 20.796 5.60395 26 12 26ZM12 4.39999C17.516 4.39999 22 8.88401 22 14.4C22 19.916 17.516 24.4 12 24.4C6.48396 24.4 1.99994 19.916 1.99994 14.4C1.99994 8.88401 6.4839 4.39999 12 4.39999Z" fill="#313133"/>
<path d="M11.9999 16.8C13.3239 16.8 14.3999 15.724 14.3999 14.4C14.3999 13.912 14.2519 13.456 13.9999 13.0759L16.6319 9.69197C16.9039 9.34395 16.8399 8.83995 16.4919 8.56794C16.1439 8.29593 15.6399 8.35993 15.3679 8.70795L12.7199 12.112C12.4919 12.04 12.2519 11.9999 11.9999 11.9999C10.6759 11.9999 9.59985 13.0759 9.59985 14.4C9.59985 15.724 10.6759 16.8 11.9999 16.8ZM11.9999 13.6C12.4399 13.6 12.7999 13.96 12.7999 14.4C12.7999 14.84 12.4399 15.2 11.9999 15.2C11.5599 15.2 11.1999 14.84 11.1999 14.4C11.1999 13.96 11.5599 13.6 11.9999 13.6Z" fill="#313133"/>
<path d="M1.99985 5.41203C2.20786 5.41203 2.41587 5.332 2.57185 5.17202C3.52387 4.20002 4.60388 3.38801 5.77586 2.75603C6.16383 2.54801 6.31186 2.06405 6.10385 1.67201C5.89583 1.28404 5.41188 1.13601 5.01983 1.34403C3.69982 2.05203 2.49182 2.96003 1.42384 4.05206C1.11583 4.36809 1.11984 4.87603 1.43586 5.18404C1.59585 5.33601 1.79985 5.41203 1.99985 5.41203Z" fill="#313133"/>
<path d="M18.2239 2.75596C19.3999 3.38393 20.4759 4.19995 21.4279 5.17195C21.5839 5.33193 21.7919 5.41195 22 5.41195C22.1999 5.41195 22.404 5.33594 22.5599 5.18397C22.876 4.87596 22.8799 4.36795 22.5719 4.05199C21.508 2.96397 20.296 2.05196 18.976 1.34403C18.588 1.13601 18.1 1.28404 17.8919 1.67201C17.6879 2.06399 17.832 2.54794 18.2239 2.75596Z" fill="#313133"/>
</svg>
