<svg width="85" height="85" viewBox="0 0 85 85" fill="none" xmlns="http://www.w3.org/2000/svg">
<circle cx="42.5" cy="42.5" r="42.5" fill="#8E0B1C"/>
<circle cx="42.5" cy="42.5" r="37.75" stroke="white"/>
<path d="M55.2728 32.0909H30.7272C29.221 32.0909 28 33.3119 28 34.8182V51.1819C28 52.6881 29.221 53.9091 30.7272 53.9091H55.2727C56.7789 53.9091 57.9999 52.6881 57.9999 51.1819V34.8182C58 33.3119 56.779 32.0909 55.2728 32.0909ZM30.7272 33.4546H55.2727C55.4285 33.4556 55.583 33.4832 55.7295 33.5364L43.9272 45.3387C43.4204 45.8489 42.5958 45.8516 42.0856 45.3447C42.0836 45.3427 42.0815 45.3407 42.0796 45.3387L30.2704 33.5364C30.4169 33.4832 30.5714 33.4555 30.7272 33.4546ZM29.3637 51.1818V34.8182C29.3567 34.7388 29.3567 34.659 29.3637 34.5796L37.8046 43L29.3637 51.4205C29.3567 51.3411 29.3567 51.2612 29.3637 51.1818ZM55.2728 52.5455H30.7272C30.5714 52.5445 30.4169 52.5168 30.2704 52.4637L38.7727 43.9614L41.1113 46.3001C42.1505 47.3432 43.8384 47.3463 44.8815 46.3072C44.8839 46.3048 44.8862 46.3024 44.8886 46.3001L47.2272 43.9614L55.7295 52.4637C55.5831 52.5168 55.4286 52.5445 55.2728 52.5455ZM56.6363 51.4205L48.1954 43L56.6363 34.5796C56.6433 34.659 56.6433 34.7388 56.6363 34.8182V51.1819C56.6433 51.2612 56.6433 51.3411 56.6363 51.4205Z" fill="white"/>
</svg>
