<svg width="85" height="85" viewBox="0 0 85 85" fill="none" xmlns="http://www.w3.org/2000/svg">
<circle cx="42.5" cy="42.5" r="42.5" fill="#8E0B1C"/>
<circle cx="42.5" cy="42.5" r="37.75" stroke="white"/>
<g clip-path="url(#clip0_79_58613)">
<path d="M57.4 49.4181C57.291 49.3091 57.1697 49.213 57.0386 49.1318L51.2637 44.6454C50.8805 44.2617 50.3605 44.0459 49.8182 44.0455C49.3741 44.0494 48.9433 44.1977 48.591 44.4682L46.9682 46.091C46.465 46.6513 45.6029 46.6977 45.0425 46.1945C44.9671 46.1268 44.8995 46.0509 44.841 45.9682V46.0091C42.6081 44.3969 40.6451 42.4408 39.0251 40.2137H39.0728C38.4288 39.8233 38.2231 38.9848 38.6134 38.3407C38.6922 38.2107 38.7922 38.0948 38.9092 37.9978L40.5114 36.4091C40.7919 36.0609 40.9479 35.6289 40.9546 35.1819C40.9542 34.6396 40.7384 34.1196 40.3546 33.7364L35.8683 27.9614C35.7886 27.8311 35.6949 27.71 35.5887 27.6001C35.2038 27.2146 34.6811 26.9987 34.1364 27C31.4091 27 28 30.2045 28 34.1591C27.9961 35.2198 28.229 36.268 28.6818 37.2273C32.8487 45.4625 39.5375 52.1512 47.7727 56.3181C48.7278 56.769 49.7711 57.0019 50.8273 56.9999C54.7955 56.9999 58 53.5908 58 50.8636C57.9995 50.3213 57.7837 49.8013 57.4 49.4181ZM56.6363 50.9999C56.5272 52.8681 54.0727 55.6363 50.8409 55.6363C49.9846 55.6366 49.1389 55.4456 48.3659 55.0772C48.2936 55.0429 48.2183 55.0156 48.1409 54.9954C40.3487 50.9993 34.0075 44.658 30.0114 36.8659C29.989 36.786 29.9593 36.7085 29.9227 36.6341C29.5543 35.861 29.3633 35.0154 29.3636 34.1591C29.3636 30.8523 32.2614 28.3636 34.1364 28.3636C34.3176 28.3626 34.4918 28.4337 34.6205 28.5614C34.6565 28.5989 34.6884 28.64 34.7159 28.6841L34.7909 28.7932L39.2841 34.5682L39.3932 34.6978C39.5208 34.8264 39.592 35.0006 39.591 35.1819C39.5922 35.3023 39.5591 35.4205 39.4955 35.5228L37.9751 37.0296C36.8757 38.0592 36.8192 39.785 37.8488 40.8844C37.8523 40.8881 37.8557 40.8918 37.8592 40.8955L37.9137 40.9773C39.6231 43.3216 41.6944 45.3791 44.0501 47.0727L44.1046 47.1136C45.1626 48.1398 46.8444 48.1398 47.9024 47.1136L47.9774 47.0386L49.5046 45.4977C49.5997 45.4413 49.7078 45.4107 49.8183 45.409C49.9995 45.408 50.1737 45.4791 50.3024 45.6068L50.4319 45.7227L56.1865 50.1818L56.3024 50.2636C56.3464 50.2885 56.3876 50.3182 56.4251 50.3522C56.5647 50.4851 56.6414 50.6709 56.6365 50.8636C56.6341 50.909 56.6341 50.9545 56.6363 50.9999Z" fill="white"/>
</g>
<defs>
<clipPath id="clip0_79_58613">
<rect width="30" height="30" fill="white" transform="translate(28 27)"/>
</clipPath>
</defs>
</svg>
