<svg width="85" height="85" viewBox="0 0 85 85" fill="none" xmlns="http://www.w3.org/2000/svg">
<circle cx="42.5" cy="42.5" r="42.5" fill="#8E0B1C"/>
<circle cx="42.5" cy="42.5" r="37.75" stroke="white"/>
<path d="M37.2288 34.73C37.553 34.5421 37.6649 34.1279 37.4793 33.8023C37.2928 33.4752 36.8765 33.3612 36.5493 33.5477C36.548 33.5485 36.5466 33.5493 36.5452 33.5501C36.2194 33.7388 36.1083 34.156 36.297 34.4818C36.4858 34.8076 36.9029 34.9187 37.2288 34.73Z" fill="white"/>
<path d="M33.4886 37.2955C33.4872 37.2948 33.4859 37.294 33.4845 37.2932C33.1573 37.1067 32.741 37.2207 32.5545 37.5478C32.368 37.8749 32.482 38.2913 32.809 38.4778C33.1346 38.6634 33.5489 38.5515 33.7367 38.2272C33.9256 37.9015 33.8144 37.4843 33.4886 37.2955Z" fill="white"/>
<path d="M32.8052 47.5181C32.8038 47.5189 32.8025 47.5197 32.8011 47.5205C32.4752 47.7092 32.3642 48.1264 32.5529 48.4522C32.7416 48.7781 33.1588 48.8891 33.4846 48.7004C33.8089 48.5126 33.9208 48.0983 33.7352 47.7728C33.5487 47.4456 33.1323 47.3316 32.8052 47.5181Z" fill="white"/>
<path d="M46.7698 34.734C46.7712 34.7348 46.7725 34.7356 46.7739 34.7363C47.1011 34.9229 47.5174 34.8088 47.7039 34.4818C47.8904 34.1546 47.7764 33.7383 47.4493 33.5518C47.1237 33.3661 46.7095 33.478 46.5216 33.8023C46.3329 34.1281 46.444 34.5453 46.7698 34.734Z" fill="white"/>
<path d="M37.2308 51.2728C37.2294 51.272 37.2281 51.2712 37.2267 51.2705C36.8995 51.084 36.4832 51.198 36.2967 51.5251C36.1102 51.8522 36.2241 52.2685 36.5512 52.4551C36.8768 52.6407 37.2911 52.5288 37.4789 52.2045C37.6677 51.8787 37.5566 51.4616 37.2308 51.2728Z" fill="white"/>
<path d="M31.7716 43.6818C32.1482 43.6818 32.4534 43.3765 32.4534 43C32.4534 42.6235 32.1482 42.3182 31.7716 42.3182C31.3951 42.3182 31.0898 42.6235 31.0898 43C31.0898 43.3765 31.3951 43.6818 31.7716 43.6818Z" fill="white"/>
<path d="M46.7759 51.2681C46.7745 51.2689 46.7732 51.2697 46.7718 51.2705C46.446 51.4592 46.3349 51.8764 46.5236 52.2022C46.7123 52.5281 47.1295 52.6391 47.4553 52.4504C47.7796 52.2626 47.8915 51.8483 47.7059 51.5228C47.5194 51.1956 47.103 51.0816 46.7759 51.2681Z" fill="white"/>
<path d="M52.2287 43.6818C52.6052 43.6818 52.9105 43.3765 52.9105 43C52.9105 42.6235 52.6052 42.3182 52.2287 42.3182C51.8521 42.3182 51.5469 42.6235 51.5469 43C51.5469 43.3765 51.8521 43.6818 52.2287 43.6818Z" fill="white"/>
<path d="M42 28C33.7157 28 27 34.7157 27 43C27 51.2843 33.7157 58 42 58C50.2843 58 57 51.2843 57 43C57 34.7157 50.2843 28 42 28ZM42 56.6363C34.4688 56.6363 28.3637 50.5312 28.3637 43C28.3637 35.4688 34.4688 29.3637 42 29.3637C49.5312 29.3637 55.6363 35.4688 55.6363 43C55.6363 50.5312 49.5312 56.6363 42 56.6363Z" fill="white"/>
<path d="M51.2015 47.5228C51.2001 47.522 51.1988 47.5212 51.1974 47.5205C50.8702 47.334 50.4539 47.448 50.2673 47.7751C50.0808 48.1022 50.1949 48.5185 50.5219 48.7051C50.8475 48.8907 51.2617 48.7788 51.4496 48.4545C51.6384 48.1287 51.5273 47.7116 51.2015 47.5228Z" fill="white"/>
<path d="M42.0002 53.909C42.3767 53.909 42.682 53.6038 42.682 53.2272C42.682 52.8507 42.3767 52.5454 42.0002 52.5454C41.6236 52.5454 41.3184 52.8507 41.3184 53.2272C41.3184 53.6038 41.6236 53.909 42.0002 53.909Z" fill="white"/>
<path d="M48.1359 42.3182H44.6314C44.3821 41.3632 43.6363 40.6174 42.6814 40.3682V32.7727C42.6814 32.3962 42.3761 32.0909 41.9996 32.0909C41.623 32.0909 41.3178 32.3962 41.3178 32.7727V40.3682C39.8577 40.7382 38.974 42.2217 39.344 43.6818C39.714 45.1419 41.1975 46.0256 42.6576 45.6556C43.6279 45.4098 44.3856 44.6521 44.6314 43.6818H48.136C48.5125 43.6818 48.8178 43.3766 48.8178 43C48.8178 42.6235 48.5125 42.3182 48.1359 42.3182ZM41.9996 44.3636C41.2464 44.3636 40.6359 43.7531 40.6359 43C40.6359 42.2469 41.2464 41.6363 41.9996 41.6363C42.7527 41.6363 43.3632 42.2469 43.3632 43C43.3632 43.7531 42.7527 44.3636 41.9996 44.3636Z" fill="white"/>
<path d="M51.1995 38.4731C51.5237 38.2853 51.6356 37.871 51.45 37.5454C51.2635 37.2183 50.8472 37.1043 50.52 37.2909C50.5187 37.2916 50.5173 37.2924 50.5159 37.2932C50.1901 37.4819 50.079 37.8991 50.2677 38.225C50.4565 38.5507 50.8736 38.6619 51.1995 38.4731Z" fill="white"/>
</svg>
