<svg width="85" height="85" viewBox="0 0 85 85" fill="none" xmlns="http://www.w3.org/2000/svg">
<circle cx="42.5" cy="42.5" r="42.5" fill="#8E0B1C"/>
<circle cx="42.5" cy="42.5" r="37.75" stroke="white"/>
<path d="M42.0009 28C35.976 28 31.0918 32.8841 31.0918 38.9091C31.0918 47.7728 42.0009 58 42.0009 58C42.0009 58 52.91 47.7728 52.91 38.9091C52.91 32.8841 48.0258 28 42.0009 28ZM42.0009 55.9546C42.0009 55.9546 32.4554 47.0909 32.4554 38.9091C32.4554 33.6373 36.7291 29.3637 42.0009 29.3637C47.2727 29.3637 51.5464 33.6373 51.5464 38.9091C51.5464 47.0909 42.0009 55.9546 42.0009 55.9546Z" fill="white"/>
<path d="M42.0014 33.4546C38.9889 33.4546 36.5469 35.8966 36.5469 38.9091C36.5469 41.9216 38.9889 44.3637 42.0014 44.3637C45.0139 44.3637 47.456 41.9216 47.456 38.9091C47.456 35.8966 45.0139 33.4546 42.0014 33.4546ZM42.0014 43C39.7421 43 37.9105 41.1684 37.9105 38.9091C37.9105 36.6498 39.7421 34.8182 42.0014 34.8182C44.2608 34.8182 46.0923 36.6498 46.0923 38.9091C46.0923 41.1684 44.2608 43 42.0014 43Z" fill="white"/>
</svg>
