<svg width="20" height="20" viewBox="0 0 20 20" fill="none" xmlns="http://www.w3.org/2000/svg">
<g clip-path="url(#clip0_39_449)">
<path d="M0 7.05881H5.88235V8.23528H0V7.05881Z" fill="#00B000"/>
<path d="M1.76465 14.1176H6.47053V15.2941H1.76465V14.1176Z" fill="#00B000"/>
<path d="M2.94116 9.41174H5.88234V10.5882H2.94116V9.41174Z" fill="#00B000"/>
<path d="M0 11.7647H5.29412V12.9412H0V11.7647Z" fill="#00B000"/>
<path d="M14.1177 8.29449V10.5882H16.4115C16.1769 9.43748 15.2684 8.52897 14.1177 8.29449Z" fill="#00B000"/>
<path d="M12.9412 8.29449C11.6003 8.56775 10.5883 9.7561 10.5883 11.1765C10.5883 12.7982 11.9076 14.1176 13.5294 14.1176C14.9498 14.1176 16.1381 13.1056 16.4114 11.7647H12.9412V8.29449Z" fill="#00B000"/>
<path d="M14.1177 4.7329V3.52941H15.2941V2.35294H11.7647V3.52941H12.9412V4.7329C9.64793 5.03109 7.05884 7.80686 7.05884 11.1765C7.05884 14.7444 9.96154 17.6471 13.5294 17.6471C17.0973 17.6471 20 14.7444 20 11.1765C20 7.80686 17.4109 5.03109 14.1177 4.7329ZM13.5294 15.2941C11.2589 15.2941 9.41178 13.4469 9.41178 11.1765C9.41178 8.90604 11.2589 7.05882 13.5294 7.05882C15.7999 7.05882 17.6471 8.90604 17.6471 11.1765C17.6471 13.4469 15.7999 15.2941 13.5294 15.2941Z" fill="#00B000"/>
</g>
<defs>
<clipPath id="clip0_39_449">
<rect width="20" height="20" fill="white"/>
</clipPath>
</defs>
</svg>
