<svg width="10" height="10" viewBox="0 0 10 10" fill="none" xmlns="http://www.w3.org/2000/svg">
<path d="M5 0C2.23663 0 0 2.23625 0 5C0 7.76337 2.23625 10 5 10C7.76337 10 10 7.76375 10 5C10 2.23663 7.76375 0 5 0ZM5 9.21875C2.66838 9.21875 0.78125 7.33185 0.78125 5C0.78125 2.66838 2.66815 0.78125 5 0.78125C7.33162 0.78125 9.21875 2.66815 9.21875 5C9.21875 7.33162 7.33185 9.21875 5 9.21875ZM6.15883 7.30469C6.15883 7.52045 5.98396 7.69531 5.7682 7.69531H4.2318C4.01604 7.69531 3.84117 7.52045 3.84117 7.30469C3.84117 7.08893 4.01604 6.91406 4.2318 6.91406H4.60938V4.62242H4.2318C4.01604 4.62242 3.84117 4.44756 3.84117 4.2318C3.84117 4.01604 4.01604 3.84117 4.2318 3.84117H5C5.21576 3.84117 5.39062 4.01604 5.39062 4.2318V6.91406H5.7682C5.98396 6.91406 6.15883 7.08893 6.15883 7.30469ZM4.51172 2.41539C4.51172 2.14569 4.7303 1.92711 5 1.92711C5.2697 1.92711 5.48828 2.14569 5.48828 2.41539C5.48828 2.68501 5.2697 2.90367 5 2.90367C4.7303 2.90367 4.51172 2.68501 4.51172 2.41539Z" fill="#A6A69E"/>
</svg>
