<svg width="40" height="40" viewBox="0 0 40 40" fill="none" xmlns="http://www.w3.org/2000/svg">
<circle cx="20" cy="20" r="20" fill="#8E0B1C"/>
<circle cx="20" cy="20" r="18.5" stroke="white"/>
<path d="M30.1929 30.4452L28.6596 27.3785C28.5946 27.2486 28.4619 27.1666 28.3167 27.1666H27.5478V21.0324C27.5478 20.6096 27.2039 20.2657 26.7811 20.2657H26.0171V8.38332C26.0171 8.1716 25.8454 8 25.6337 8H13.3665C13.1548 8 12.9832 8.17165 12.9832 8.38332V27.1666H10.6833C10.5381 27.1666 10.4054 27.2486 10.3404 27.3785L8.80712 30.4452C8.74778 30.5641 8.75416 30.7052 8.82397 30.8182C8.89378 30.9311 9.01713 31 9.15001 31H29.85C29.9829 31 30.1063 30.9311 30.1761 30.8182C30.2459 30.7052 30.2522 30.5641 30.1929 30.4452ZM25.6337 21.0333C25.6354 21.0333 25.6367 21.0324 25.6384 21.0324H26.7811L26.7816 27.5402C26.7815 27.5437 26.7796 27.5465 26.7796 27.55C26.7796 27.5535 26.7815 27.5563 26.7816 27.5598L26.7817 28.6991H19.1145V21.0324H21.4126V22.9453C21.4126 23.157 21.5842 23.3286 21.7959 23.3286H24.0959C24.3076 23.3286 24.4792 23.157 24.4792 22.9453V21.0324H25.6291C25.6307 21.0324 25.6321 21.0333 25.6337 21.0333ZM21.8144 20.2657C21.8079 20.2654 21.8025 20.262 21.7959 20.262C21.7894 20.262 21.7839 20.2654 21.7774 20.2657H19.1145C18.6916 20.2657 18.3478 20.6096 18.3478 21.0324V27.1667H15.2832V10.3H23.7171V20.2657H21.8144ZM23.7126 21.0324V22.562H22.1792V21.0324H23.7126ZM13.7498 8.76668H25.2504V20.2657H24.4837V9.91668C24.4837 9.70496 24.312 9.53336 24.1004 9.53336H14.8998C14.6881 9.53336 14.5165 9.70501 14.5165 9.91668V27.1667H13.7498V8.76668V8.76668ZM9.77029 30.2333L10.9203 27.9333H18.3478V28.6991C18.3478 29.1219 18.6916 29.4657 19.1145 29.4657H26.7811C27.204 29.4657 27.5478 29.1219 27.5478 28.6991V27.9333H28.0798L29.2298 30.2333H9.77029Z" fill="white"/>
<path d="M17.582 16.8157C16.9478 16.8157 16.432 17.3316 16.432 17.9657C16.432 18.5999 16.9478 19.1157 17.582 19.1157C18.2162 19.1157 18.732 18.5999 18.732 17.9657C18.732 17.3316 18.2162 16.8157 17.582 16.8157ZM17.582 18.3491C17.3707 18.3491 17.1987 18.177 17.1987 17.9657C17.1987 17.7544 17.3707 17.5824 17.582 17.5824C17.7933 17.5824 17.9653 17.7544 17.9653 17.9657C17.9653 18.177 17.7933 18.3491 17.582 18.3491Z" fill="white"/>
</svg>
