<svg width="25" height="23" viewBox="0 0 25 23" fill="none" xmlns="http://www.w3.org/2000/svg">
<path d="M17.6 0.219971C15.56 0.219971 13.52 1.17997 12.2 2.73997C10.88 1.17997 8.83995 0.219971 6.79995 0.219971C3.07995 0.219971 0.199951 3.09997 0.199951 6.81997C0.199951 11.38 4.27995 15.1 10.52 20.62L12.2 22.18L13.88 20.62C20 14.98 24.2 11.26 24.2 6.81997C24.2 3.09997 21.32 0.219971 17.6 0.219971ZM12.32 18.94H12.2L12.08 18.82C6.31995 13.6599 2.59995 10.3 2.59995 6.81997C2.59995 4.41997 4.39995 2.61997 6.79995 2.61997C8.59995 2.61997 10.4 3.81997 11.12 5.49997H13.4C14 3.81997 15.8 2.61997 17.6 2.61997C20 2.61997 21.8 4.41997 21.8 6.81997C21.8 10.3 18.08 13.6599 12.32 18.94Z" fill="#313133"/>
</svg>
