<svg width="20" height="20" viewBox="0 0 20 20" fill="none" xmlns="http://www.w3.org/2000/svg">
<path d="M14.5 0.849976C12.8 0.849976 11.1 1.64998 10 2.94997C8.9 1.64998 7.2 0.849976 5.5 0.849976C2.4 0.849976 0 3.24997 0 6.34997C0 10.15 3.4 13.25 8.6 17.85L10 19.15L11.4 17.85C16.5 13.15 20 10.05 20 6.34997C20 3.24997 17.6 0.849976 14.5 0.849976ZM10.1 16.45H10L9.9 16.35C5.1 12.0499 2 9.24997 2 6.34997C2 4.34997 3.5 2.84997 5.5 2.84997C7 2.84997 8.5 3.84997 9.1 5.24997H11C11.5 3.84997 13 2.84997 14.5 2.84997C16.5 2.84997 18 4.34997 18 6.34997C18 9.24997 14.9 12.0499 10.1 16.45Z" fill="#A6A69E"/>
</svg>
