<svg width="40" height="40" viewBox="0 0 40 40" fill="none" xmlns="http://www.w3.org/2000/svg">
<circle cx="20" cy="20" r="20" fill="#8E0B1C"/>
<path d="M17.5532 20.5957C17.4894 20.5957 16.0851 20.5957 15.4468 20.5957C15.1064 20.5957 15 20.4681 15 20.1489C15 19.2979 15 18.4255 15 17.5745C15 17.234 15.1277 17.1277 15.4468 17.1277H17.5532C17.5532 17.0638 17.5532 15.8298 17.5532 15.2553C17.5532 14.4043 17.7021 13.5957 18.1277 12.8511C18.5745 12.0851 19.2128 11.5745 20.0213 11.2766C20.5532 11.0851 21.0851 11 21.6596 11H23.7447C24.0426 11 24.1702 11.1277 24.1702 11.4255V13.8511C24.1702 14.1489 24.0426 14.2766 23.7447 14.2766C23.1702 14.2766 22.5957 14.2766 22.0213 14.2979C21.4468 14.2979 21.1489 14.5745 21.1489 15.1702C21.1277 15.8085 21.1489 16.4255 21.1489 17.0851H23.617C23.9574 17.0851 24.0851 17.2128 24.0851 17.5532V20.1277C24.0851 20.4681 23.9787 20.5745 23.617 20.5745C22.8511 20.5745 21.2128 20.5745 21.1489 20.5745V27.5106C21.1489 27.8723 21.0426 28 20.6596 28C19.766 28 18.8936 28 18 28C17.6809 28 17.5532 27.8723 17.5532 27.5532C17.5532 25.3191 17.5532 20.6596 17.5532 20.5957Z" fill="#F6F6F1"/>
</svg>
