<svg width="30" height="30" viewBox="0 0 30 30" fill="none" xmlns="http://www.w3.org/2000/svg">
<path d="M8.1818 14.3181C8.1818 13.9412 7.87683 13.6362 7.49996 13.6362C7.12308 13.6362 6.81812 13.9412 6.81812 14.3181C6.81812 16.1085 8.793 18.5668 9.01807 18.8418C9.15326 19.0056 9.34898 19.0908 9.54605 19.0908C9.69786 19.0908 9.85101 19.0402 9.97815 18.9363C10.2691 18.6973 10.3111 18.2678 10.0727 17.9762C9.3417 17.0853 8.1818 15.3048 8.1818 14.3181Z" fill="#313133"/>
<path d="M22.5 13.6362C22.1231 13.6362 21.8182 13.9412 21.8182 14.3181C21.8182 15.3015 20.6583 17.084 19.9272 17.9769C19.6888 18.2678 19.7314 18.6973 20.0224 18.9363C20.1489 19.0402 20.3021 19.0908 20.4545 19.0908C20.6516 19.0908 20.8467 19.0056 20.9819 18.8418C21.207 18.5668 23.1818 16.1085 23.1818 14.3181C23.1818 13.9412 22.8769 13.6362 22.5 13.6362Z" fill="#313133"/>
<path d="M15 13.6362C14.6231 13.6362 14.3181 13.9412 14.3181 14.3181V18.409C14.3181 18.7859 14.6231 19.0908 15 19.0908C15.3768 19.0908 15.6818 18.7859 15.6818 18.409V14.3181C15.6817 13.9412 15.3768 13.6362 15 13.6362Z" fill="#313133"/>
<path d="M22.5 2.7273C22.0868 2.7273 21.6551 2.78195 21.2066 2.86524C19.705 1.11471 17.482 0 15 0C12.5181 0 10.295 1.11471 8.79342 2.86517C8.34495 2.78195 7.91317 2.72723 7.50005 2.72723C3.36446 2.7273 0 6.09175 0 10.2273C0 13.0611 1.59801 15.6372 4.10689 16.9109L4.0936 27.2148C4.09296 27.9585 4.38188 28.6577 4.90724 29.1837C5.43324 29.7104 6.1317 30 6.87548 30H23.1273C24.6614 30 25.9092 28.7522 25.9092 27.2181V16.901C28.4087 15.6239 30.0001 13.0517 30.0001 10.2273C30 6.09175 26.6355 2.7273 22.5 2.7273ZM24.5455 27.2182C24.5455 27.9999 23.909 28.6364 23.1272 28.6364H6.87542C6.49656 28.6364 6.14033 28.4886 5.87199 28.2203C5.60429 27.952 5.45651 27.5958 5.45715 27.2163L5.46073 24.5455H24.5455V27.2182ZM24.9676 15.8396C24.9316 15.8543 24.8977 15.8716 24.8657 15.8922C24.7798 15.9455 24.7092 16.0161 24.6566 16.0973C24.6034 16.1778 24.5674 16.2711 24.5528 16.3709C24.5468 16.4089 24.5448 16.4469 24.5454 16.4855V23.1818H5.46245L5.47121 16.4947C5.47185 16.4575 5.46987 16.4195 5.46456 16.3829C5.44993 16.2797 5.41196 16.1838 5.35667 16.1006C5.3047 16.0226 5.23681 15.9547 5.15423 15.9028C5.12029 15.8815 5.0843 15.8628 5.04703 15.8475C2.80918 14.8689 1.36362 12.6649 1.36362 10.2273C1.36362 6.84346 4.11622 4.09091 7.49998 4.09091C7.63224 4.09091 7.77184 4.10689 7.90882 4.11769C7.21899 5.31659 6.81814 6.702 6.81814 8.18182C6.81814 8.5587 7.12311 8.86366 7.49998 8.86366C7.87686 8.86366 8.18182 8.5587 8.18182 8.18182C8.18182 4.42247 11.2407 1.36362 15 1.36362C18.7594 1.36362 21.8182 4.42247 21.8182 8.18182C21.8182 8.5587 22.1231 8.86366 22.5 8.86366C22.8769 8.86366 23.1819 8.5587 23.1819 8.18182C23.1819 6.702 22.781 5.31665 22.0912 4.11769C22.2282 4.10689 22.3678 4.09091 22.5 4.09091C25.8838 4.09091 28.6364 6.84352 28.6364 10.2273C28.6364 12.6563 27.1968 14.8575 24.9676 15.8396Z" fill="#313133"/>
</svg>
