<svg width="40" height="40" viewBox="0 0 40 40" fill="none" xmlns="http://www.w3.org/2000/svg">
<circle cx="20" cy="20" r="20" fill="#8E0B1C"/>
<circle cx="20" cy="20" r="18.5" stroke="white"/>
<g clip-path="url(#clip0_62_393)">
<path d="M27.2568 9.36952L20.7167 7.61709C19.6069 7.31972 18.4625 7.98037 18.1651 9.09024L14.7951 21.6674L13.0811 28.0641C12.6491 29.6765 13.4687 31.3774 14.947 31.9367C15.0456 31.9737 15.1448 32.0061 15.2455 32.033C15.9938 32.2335 16.7955 32.1519 17.4866 31.7973C18.271 31.3951 18.8518 30.6761 19.0798 29.8252C19.2593 29.1551 19.2109 28.4612 18.9397 27.8188C18.8279 27.554 18.7183 27.1497 18.8305 26.7306L19.6912 23.5185L23.2128 24.4621C24.5261 24.814 25.989 20.1383 26.7441 17.3202C27.4992 14.5022 28.57 9.72139 27.2568 9.36952ZM17.0113 30.8706C16.4814 31.1425 15.8842 31.1763 15.3154 30.9623C14.3315 30.5901 13.792 29.4356 14.0873 28.3336L15.6665 22.4401L18.685 23.2489L17.8243 26.461C17.6749 27.0186 17.7286 27.628 17.9801 28.224C18.1601 28.6509 18.1926 29.1114 18.0736 29.5555C17.9215 30.123 17.5345 30.6022 17.0113 30.8706ZM21.2955 22.87L15.9361 21.4339L19.1713 9.35985C19.32 8.8052 19.8924 8.47468 20.4471 8.6233L24.8003 9.78974C24.9334 10.3208 24.7654 12.6305 23.7255 16.5114C22.6857 20.3924 21.6764 22.4766 21.2955 22.87ZM23.3173 23.4117L22.3393 23.1497C23.2895 21.7523 24.1918 18.7962 24.7317 16.781C25.2717 14.7658 25.9683 11.7546 25.8441 10.0694L26.8222 10.3314C26.9444 10.9071 26.7624 13.2273 25.7379 17.0506C24.7135 20.8739 23.7109 22.9743 23.3173 23.4117Z" fill="white"/>
<path d="M15.9264 29.5194C16.2042 29.5939 16.4898 29.429 16.5643 29.1511C16.6387 28.8733 16.4738 28.5877 16.196 28.5132C15.9181 28.4388 15.6325 28.6037 15.5581 28.8815C15.4836 29.1594 15.6485 29.445 15.9264 29.5194Z" fill="white"/>
<path d="M21.1836 9.89905C20.629 9.75044 20.0565 10.081 19.9079 10.6356C19.7593 11.1903 20.0898 11.7627 20.6444 11.9114C21.1991 12.06 21.7716 11.7295 21.9202 11.1748C22.0688 10.6202 21.7383 10.0477 21.1836 9.89905Z" fill="white"/>
</g>
<defs>
<clipPath id="clip0_62_393">
<rect width="25" height="25" fill="white" transform="translate(11.6611 5.19067) rotate(15)"/>
</clipPath>
</defs>
</svg>
