<svg width="20" height="20" viewBox="0 0 20 20" fill="none" xmlns="http://www.w3.org/2000/svg">
<path d="M14.5 0.850006C12.8 0.850006 11.1 1.65001 10 2.95001C8.9 1.65001 7.2 0.850006 5.5 0.850006C2.4 0.850006 0 3.25001 0 6.35C0 10.15 3.4 13.25 8.6 17.85L10 19.15L11.4 17.85C16.5 13.15 20 10.05 20 6.35C20 3.25001 17.6 0.850006 14.5 0.850006ZM10.1 16.45H10L9.9 16.35C5.1 12.05 2 9.25 2 6.35C2 4.35 3.5 2.85001 5.5 2.85001C7 2.85001 8.5 3.85 9.1 5.25H11C11.5 3.85 13 2.85001 14.5 2.85001C16.5 2.85001 18 4.35 18 6.35C18 9.25 14.9 12.05 10.1 16.45Z" fill="#A6A69E"/>
</svg>
