<svg width="29" height="18" viewBox="0 0 29 18" fill="none" xmlns="http://www.w3.org/2000/svg">
<path d="M18.4201 16.0769H10.5801V1.92285H18.4201V16.0769Z" fill="#6C6BBD"/>
<path d="M11.08 9C11.08 6.133 12.417 3.573 14.5 1.923C12.97 0.717 11.056 0 8.96 0C4 0 0 4.028 0 9C0 13.972 4 18 8.96 18C11.056 18 12.96 17.283 14.5 16.077C13.431 15.2335 12.5677 14.1582 11.975 12.9322C11.3824 11.7062 11.076 10.3617 11.079 9H11.08Z" fill="#D32011"/>
<path d="M29 9C29 13.972 25 18 20.04 18C17.944 18 16.04 17.283 14.5 16.077C16.584 14.427 17.92 11.877 17.92 9C17.92 6.123 16.583 3.573 14.5 1.923C16.03 0.717 17.944 0 20.04 0C25 0 29 4.028 29 9Z" fill="#0099DF"/>
</svg>
