<svg width="29" height="18" viewBox="0 0 29 18" fill="none" xmlns="http://www.w3.org/2000/svg">
<g clip-path="url(#clip0_39_434)">
<path d="M18.42 1.9248H10.578V16.0748H18.42V1.9248Z" fill="#FF5F00"/>
<path d="M11.076 9.00016C11.075 7.63716 11.383 6.29216 11.976 5.06716C12.569 3.84216 13.432 2.76716 14.499 1.92716C13.177 0.884158 11.6 0.235158 9.918 0.0551576C8.24566 -0.12478 6.55649 0.171248 5.045 0.909158C3.533 1.64716 2.258 2.79716 1.365 4.22916C0.472 5.66116 0 7.31316 0 9.00216C0 10.6912 0.473 12.3452 1.365 13.7762C2.257 15.2072 3.532 16.3562 5.045 17.0962C6.55649 17.8341 8.24566 18.1301 9.918 17.9502C11.5911 17.7698 13.1793 17.121 14.5 16.0782C13.432 15.2382 12.57 14.1622 11.976 12.9362C11.3827 11.7097 11.0754 10.3646 11.077 9.00216L11.076 9.00016Z" fill="#EB001B"/>
<path d="M29 8.99979C29 10.6878 28.527 12.3428 27.635 13.7738C26.743 15.2048 25.468 16.3538 23.955 17.0938C22.4435 17.8317 20.7543 18.1277 19.082 17.9478C17.41 17.7678 15.822 17.1178 14.5 16.0748C15.5679 15.2319 16.4306 14.1575 17.023 12.9328C17.6163 11.7066 17.9245 10.362 17.9245 8.99979C17.9245 7.63757 17.6163 6.29301 17.023 5.06679C16.43 3.84179 15.567 2.76679 14.5 1.92479C15.82 0.879786 17.41 0.231786 19.08 0.0497865C20.7523 -0.130151 22.4415 0.165877 23.953 0.903786C25.466 1.64179 26.741 2.79179 27.633 4.22379C28.525 5.65579 29 7.29979 29 8.99779V8.99979Z" fill="#F79E1B"/>
</g>
<defs>
<clipPath id="clip0_39_434">
<rect width="29" height="18" fill="white"/>
</clipPath>
</defs>
</svg>
