<svg width="40" height="40" viewBox="0 0 40 40" fill="none" xmlns="http://www.w3.org/2000/svg">
<circle cx="20" cy="20" r="20" fill="#8E0B1C"/>
<circle cx="20" cy="20" r="18.5" stroke="white"/>
<path d="M28.5658 13.8476C28.3199 13.7362 28.0308 13.8453 27.9196 14.0909C27.8084 14.3366 27.9173 14.626 28.163 14.7372C30.6164 15.848 32.0234 17.1719 32.0234 18.3693C32.0234 21.2349 28.2362 21.9466 26.6081 22.1196C24.1436 22.3814 22.4424 23.2151 20.9414 23.9506C19.375 24.7181 18.0222 25.3809 16.0566 25.3809C12.1527 25.3809 8.97656 22.4617 8.97656 18.8734C8.97656 17.0931 9.6386 15.6658 10.9444 14.6311C14.0577 12.1641 19.9675 12.4167 24.0822 13.3827C24.3446 13.4444 24.6075 13.2815 24.6693 13.019C24.7309 12.7564 24.568 12.4935 24.3055 12.4319C21.7449 11.8309 19.0481 11.594 16.7116 11.7653C14.028 11.9618 11.8239 12.6881 10.338 13.8657C8.78659 15.095 8 16.7799 8 18.8734V21.8033C8 25.9301 11.6142 29.2874 16.0566 29.2874C18.2486 29.2874 19.7653 28.5441 21.3711 27.7573C22.8693 27.0232 24.4183 26.264 26.7113 26.0205C28.5339 25.8269 30.0634 25.3403 31.1342 24.6138C32.3549 23.7856 33 22.6395 33 21.299V18.3693C33 16.7481 31.4253 15.1423 28.5658 13.8476ZM32.0234 21.299C32.0234 24.1646 28.2362 24.8764 26.6081 25.0494C24.1436 25.3111 22.4424 26.1448 20.9414 26.8803C19.375 27.6478 18.0222 28.3108 16.0566 28.3108C12.4134 28.3108 9.40457 25.7683 9.01871 22.5125C10.3975 24.8043 13.0352 26.3575 16.0566 26.3575C18.2486 26.3575 19.7653 25.6144 21.3711 24.8274C22.8691 24.0935 24.4183 23.3343 26.7111 23.0908C28.5339 22.897 30.0634 22.4106 31.1342 21.6841C31.4764 21.452 31.7732 21.1949 32.0234 20.9154V21.299Z" fill="white"/>
<path d="M15.4718 24.3778C15.6666 24.3954 15.8634 24.4044 16.0566 24.4044C17.1028 24.4044 18.0359 24.1944 19.1765 23.7023C19.6848 23.4829 20.1849 23.2382 20.6686 23.0017C21.1706 22.7562 21.6894 22.5022 22.2082 22.2821C23.6382 21.6744 25.0437 21.3038 26.5049 21.1485C27.0937 21.086 30.2027 20.4443 30.7657 18.9049C30.913 18.5026 30.9473 17.8759 30.2755 17.1742C29.7316 16.6058 29.158 16.3166 28.5511 16.0105C28.4903 15.9798 28.4285 15.9487 28.3657 15.9167C26.3735 14.9033 23.7785 14.1642 21.0587 13.8357C19.997 13.7076 17.894 13.5372 15.7364 13.8363C13.435 14.1552 11.7897 14.9142 10.846 16.0919C10.2451 16.8415 9.95312 17.7513 9.95312 18.8734C9.95312 20.1176 10.3895 21.2834 11.2148 22.2445C11.3905 22.4489 11.6989 22.4726 11.9034 22.2967C12.108 22.1211 12.1313 21.8127 11.9557 21.6082C11.2845 20.8266 10.9297 19.8811 10.9297 18.8734C10.9297 17.9821 11.1515 17.272 11.6079 16.7025C12.3903 15.7261 13.8245 15.0872 15.8703 14.8035C17.9953 14.509 20.1246 14.7066 20.9414 14.8053C23.5508 15.1203 26.03 15.8242 27.9228 16.787C27.9867 16.8196 28.0495 16.8513 28.1113 16.8824C28.6871 17.1728 29.142 17.4021 29.57 17.8494C29.9622 18.2591 29.8798 18.4845 29.8487 18.5694C29.5601 19.3583 27.4229 20.0688 26.4017 20.1773C24.843 20.343 23.3465 20.7375 21.8264 21.3831C21.2837 21.6135 20.7529 21.8733 20.2395 22.1243C19.7661 22.3561 19.2764 22.5954 18.7897 22.8056C17.7788 23.2418 16.9615 23.4278 16.0566 23.4278C15.8926 23.4278 15.7255 23.4202 15.56 23.4053C15.2912 23.3801 15.0539 23.5789 15.0295 23.8474C15.0053 24.116 15.2033 24.3534 15.4718 24.3778Z" fill="white"/>
<path d="M16.0325 21.6193C17.3056 21.6193 18.303 20.933 18.303 20.0568C18.303 19.1805 17.3056 18.4943 16.0325 18.4943C14.7591 18.4943 13.762 19.1805 13.762 20.0568C13.762 20.933 14.7591 21.6193 16.0325 21.6193ZM16.0325 19.4708C16.8103 19.4708 17.3264 19.8235 17.3264 20.0568C17.3264 20.29 16.8103 20.6427 16.0325 20.6427C15.2545 20.6427 14.7385 20.29 14.7385 20.0568C14.7385 19.8235 15.2545 19.4708 16.0325 19.4708Z" fill="white"/>
<path d="M13.5551 22.8386L13.5547 22.8384C13.3068 22.7322 13.0199 22.8472 12.9139 23.095C12.8076 23.3429 12.9225 23.63 13.1704 23.7362C13.2332 23.7631 13.2984 23.7759 13.3625 23.7759C13.5519 23.7759 13.7321 23.6649 13.8115 23.4799C13.9177 23.2319 13.8031 22.9448 13.5551 22.8386Z" fill="white"/>
<path d="M26.1787 13.9688C26.2235 13.9816 26.2687 13.9877 26.3132 13.9877C26.5257 13.9877 26.7212 13.8479 26.7824 13.6335C26.8566 13.3741 26.7063 13.1039 26.4471 13.0299L26.4467 13.0297C26.1873 12.9558 25.9174 13.106 25.8432 13.3652C25.7692 13.6244 25.9195 13.8946 26.1787 13.9688Z" fill="white"/>
</svg>
