<svg width="85" height="85" viewBox="0 0 85 85" fill="none" xmlns="http://www.w3.org/2000/svg">
<circle cx="42.5" cy="42.5" r="42.5" fill="#8E0B1C"/>
<circle cx="42.5" cy="42.5" r="37.75" stroke="white"/>
<path d="M53.1818 25.9787H49.7273V24.4408C49.7273 23.9432 49.1819 23.717 48.6818 23.717H46.0001C45.3637 21.9076 43.7728 21.0029 41.9546 21.0029C40.1565 20.9357 38.5209 22.0329 37.9092 23.717H35.2728C34.7728 23.717 34.2728 23.9432 34.2728 24.4408V25.9787H30.8182C28.771 26.0004 27.0962 27.6076 27 29.6427V55.5622C27 57.5525 28.8182 59 30.8182 59H53.1818C55.1818 59 57 57.5525 57 55.5622V29.6428C56.9038 27.6076 55.229 26.0004 53.1818 25.9787ZM36.0909 25.5264H38.5909C39.0273 25.4734 39.3779 25.143 39.4546 24.7122C39.7238 23.5456 40.7522 22.7082 41.9546 22.6766C43.1459 22.7126 44.1588 23.5526 44.4091 24.7122C44.4907 25.1579 44.8643 25.4926 45.3182 25.5264H47.9092V29.1452H36.0909V25.5264ZM55.1818 55.5623C55.1818 56.5574 54.1818 57.1907 53.1818 57.1907H30.8182C29.8182 57.1907 28.8182 56.5574 28.8182 55.5623V29.6428C28.9109 28.6069 29.7733 27.8072 30.8182 27.7882H34.2727V30.0952C34.3208 30.602 34.7619 30.9812 35.2727 30.9547H48.6818C49.202 30.983 49.657 30.609 49.7272 30.0952V27.7881H53.1817C54.2265 27.8072 55.089 28.6068 55.1817 29.6427V55.5623H55.1818Z" fill="white"/>
<path d="M38.5007 41.2229C38.1597 40.8652 37.5937 40.845 37.2279 41.1777L34.3188 43.937L33.0915 42.6703C32.7506 42.3127 32.1845 42.2926 31.8188 42.6252C31.4667 42.9923 31.4667 43.5698 31.8188 43.937L33.6824 45.8368C33.8437 46.0166 34.0767 46.116 34.3187 46.1083C34.5585 46.1049 34.7872 46.0073 34.955 45.8368L38.5005 42.4895C38.852 42.1686 38.8755 41.6249 38.5529 41.2752C38.5364 41.2569 38.5189 41.2395 38.5007 41.2229Z" fill="white"/>
<path d="M51.5452 43.1679H41.0907C40.5886 43.1679 40.1816 43.573 40.1816 44.0726C40.1816 44.5723 40.5886 44.9773 41.0907 44.9773H51.5452C52.0473 44.9773 52.4543 44.5723 52.4543 44.0726C52.4543 43.573 52.0473 43.1679 51.5452 43.1679Z" fill="white"/>
<path d="M38.5007 33.9853C38.1597 33.6276 37.5937 33.6075 37.2279 33.9401L34.3188 36.6994L33.0915 35.4328C32.7506 35.0751 32.1845 35.0549 31.8188 35.3876C31.4667 35.7547 31.4667 36.3323 31.8188 36.6994L33.6824 38.5993C33.8437 38.779 34.0767 38.8784 34.3187 38.8707C34.5585 38.8673 34.7872 38.7697 34.955 38.5993L38.5005 35.2519C38.852 34.931 38.8755 34.3873 38.5529 34.0376C38.5364 34.0193 38.5189 34.0019 38.5007 33.9853Z" fill="white"/>
<path d="M51.5452 35.9304H41.0907C40.5886 35.9304 40.1816 36.3354 40.1816 36.8351C40.1816 37.3347 40.5886 37.7398 41.0907 37.7398H51.5452C52.0473 37.7398 52.4543 37.3347 52.4543 36.8351C52.4543 36.3354 52.0473 35.9304 51.5452 35.9304Z" fill="white"/>
<path d="M38.5007 48.4603C38.1597 48.1027 37.5937 48.0826 37.2279 48.4152L34.3188 51.1744L33.0915 49.9078C32.7506 49.5502 32.1845 49.5301 31.8188 49.8626C31.4667 50.2297 31.4667 50.8073 31.8188 51.1744L33.6824 53.0743C33.8437 53.2541 34.0767 53.3535 34.3187 53.3457C34.5585 53.3424 34.7872 53.2448 34.955 53.0743L38.5005 49.727C38.852 49.4061 38.8755 48.8623 38.5529 48.5126C38.5364 48.4945 38.5189 48.4771 38.5007 48.4603Z" fill="white"/>
<path d="M51.5452 50.4055H41.0907C40.5886 50.4055 40.1816 50.8105 40.1816 51.3102C40.1816 51.8099 40.5886 52.2149 41.0907 52.2149H51.5452C52.0473 52.2149 52.4543 51.8099 52.4543 51.3102C52.4543 50.8105 52.0473 50.4055 51.5452 50.4055Z" fill="white"/>
</svg>
