<svg width="85" height="85" viewBox="0 0 85 85" fill="none" xmlns="http://www.w3.org/2000/svg">
<circle cx="42.5" cy="42.5" r="42.5" fill="#8E0B1C"/>
<circle cx="42.5" cy="42.5" r="37.75" stroke="white"/>
<path d="M57.9704 53.7132L55.6418 32.9437C55.618 32.465 55.2273 32.0823 54.7388 32.0588H51.0796V29.6838C51.0797 25.4402 47.5691 22 43.2386 22C38.908 22 35.3974 25.4402 35.3974 29.6838V32.0588H31.263C30.7746 32.0822 30.384 32.465 30.3601 32.9437L28.0315 53.6667C27.8625 55.2569 28.3793 56.8439 29.4571 58.0441C30.5094 59.242 32.0268 59.9517 33.639 60H52.3627C53.9689 59.9692 55.4874 59.276 56.5447 58.0907C57.6174 56.8876 58.1336 55.3028 57.9704 53.7132ZM37.2983 29.6838C37.2983 26.4689 39.9579 23.8627 43.2386 23.8627C46.5192 23.8627 49.1788 26.469 49.1788 29.6838V32.0588H37.2983V29.6838ZM55.1191 56.8333C54.431 57.6319 53.4288 58.106 52.3628 58.1373H33.6391C32.573 58.106 31.5708 57.6319 30.8828 56.8333C30.1701 56.0237 29.8268 54.9636 29.9324 53.8995L32.1184 33.9216H35.3974V36.2034C35.3974 36.7178 35.8229 37.1348 36.3479 37.1348C36.8728 37.1348 37.2983 36.7178 37.2983 36.2034V33.9216H49.1788V36.2034C49.1788 36.7178 49.6043 37.1348 50.1293 37.1348C50.6542 37.1348 51.0797 36.7178 51.0797 36.2034V33.9216H53.8835L56.0695 53.8995C56.1751 54.9636 55.8317 56.0237 55.1191 56.8333Z" fill="white"/>
<path d="M43.0018 36.7157C37.8695 36.7157 33.6875 41 33.6875 46.0294C33.6875 51.0588 37.8695 55.3431 43.0018 55.3431C48.1342 55.3431 52.3161 51.0589 52.3161 46.0294C52.3161 41 48.1343 36.7157 43.0018 36.7157ZM43.0018 53.4804C38.9149 53.4804 35.5884 50.0343 35.5884 46.0294C35.5884 42.0245 38.9149 38.5784 43.0018 38.5784C47.0888 38.5784 50.4153 42.0245 50.4153 46.0294C50.4153 50.0343 47.0888 53.4804 43.0018 53.4804Z" fill="white"/>
<path d="M44.8 43C44.12 43 43.44 43.32 43 43.84C42.56 43.32 41.88 43 41.2 43C39.96 43 39 43.96 39 45.2C39 46.72 40.36 47.96 42.44 49.8L43 50.32L43.56 49.8C45.6 47.92 47 46.68 47 45.2C47 43.96 46.04 43 44.8 43Z" fill="white"/>
</svg>
