<svg width="85" height="85" viewBox="0 0 85 85" fill="none" xmlns="http://www.w3.org/2000/svg">
<circle cx="42.5" cy="42.5" r="42.5" fill="#8E0B1C"/>
<circle cx="42.5" cy="42.5" r="37.75" stroke="white"/>
<path d="M41.919 39.84C46.271 39.84 49.799 36.312 49.799 31.9601C49.799 27.6081 46.2711 24.08 41.919 24.08C37.567 24.08 34.0391 27.608 34.0391 31.96C34.0391 36.312 37.5671 39.84 41.919 39.84ZM41.919 25.68C45.3874 25.68 48.199 28.4917 48.199 31.96C48.199 35.4283 45.3873 38.2399 41.919 38.2399C38.4507 38.2399 35.6391 35.4283 35.6391 31.96C35.6391 28.4916 38.4507 25.68 41.919 25.68Z" fill="white"/>
<path d="M54.5992 47.36C52.3018 47.3601 50.4393 49.2227 50.4395 51.5202C50.4395 53.8177 52.3021 55.68 54.5996 55.68C56.8971 55.6799 58.7596 53.8173 58.7594 51.5198C58.7594 51.5065 58.7593 51.4932 58.7592 51.48C58.7373 49.1981 56.8812 47.3599 54.5992 47.36ZM54.5992 54.04C53.1854 54.04 52.0392 52.8938 52.0392 51.48C52.0392 50.0661 53.1854 48.9199 54.5992 48.9199C56.0131 48.9199 57.1593 50.0661 57.1593 51.48C57.1593 52.8938 56.013 54.04 54.5992 54.04Z" fill="white"/>
<path d="M61.96 52.08C62.0074 51.5868 61.994 51.0898 61.92 50.6L62.92 49.6399L61.6 46.5999L60.2 46.68C59.8736 46.3136 59.5264 45.9663 59.1599 45.6399V44.2799L56.0399 43.08L55.12 44.12C54.6669 44.0732 54.2096 44.0867 53.76 44.16C52.1951 42.4064 50.1281 41.1773 47.84 40.6399C47.6192 40.6006 47.3916 40.6432 47.2 40.7599C44.0217 43 39.7784 43 36.6 40.7599C36.4115 40.6355 36.1808 40.5922 35.96 40.6399C30.7361 41.9204 27.0466 46.5816 27 51.96V53.16C26.9995 53.6087 27.3518 53.9786 27.8 53.9999H46.56L47.6001 56.4399L49.0001 56.3199C49.3165 56.6833 49.6646 57.018 50.0401 57.3199V58.7199L53.1601 59.9199L54.0801 58.8799C54.5737 58.906 55.0686 58.8926 55.5601 58.8399L56.4801 59.8399L59.5601 58.4799L59.4001 57.1199C59.7864 56.8004 60.1353 56.4381 60.4401 56.04H61.8001L63.0001 52.92L61.96 52.08ZM47.4 46.96L46.2 50.08L47.2401 50.96C47.2 51.4526 47.2 51.9475 47.2401 52.4401H28.6V51.9601C28.6483 47.4664 31.6425 43.5427 35.9553 42.3046C37.7265 43.4629 39.7989 44.0821 41.92 44.08C44.0436 44.0816 46.117 43.4535 47.8821 42.2807C49.0512 42.6086 50.1491 43.151 51.12 43.8801L49.68 44.52L49.8 45.88C49.4137 46.1996 49.0648 46.5619 48.76 46.96H47.4ZM60.72 54.44H59.5999L59.3599 54.84C59.0113 55.3366 58.5938 55.781 58.1199 56.16L57.7599 56.4L57.8399 57.5201L56.8399 57.9601L56.0799 57.1601L55.6399 57.2401C55.0328 57.3533 54.4113 57.3669 53.7999 57.28H53.3599L52.6399 58.08L51.6399 57.6801V56.5201L51.2799 56.2801C50.7742 55.9268 50.3285 55.4947 49.9599 55.0001L49.6799 54.6401L48.5999 54.7201L48.1999 53.7201L48.9999 52.9601L48.9199 52.5601C48.7939 51.9416 48.7669 51.3071 48.8399 50.6801L48.9199 50.2802L48.08 49.5602L48.4799 48.5602H49.6L49.84 48.2002C50.1674 47.6867 50.5879 47.2389 51.08 46.8802L51.44 46.6401L51.36 45.5201L52.36 45.0801L53.12 45.8801L53.56 45.8001C54.167 45.6861 54.7886 45.6726 55.4 45.7601H55.84L56.5201 44.9601L57.5601 45.3201V46.4402L57.9201 46.6802C58.4241 47.038 58.858 47.4854 59.2001 48.0002L59.48 48.3202L60.56 48.2402L61 49.2402L60.2 50.0402L60.28 50.4402C60.4066 51.0451 60.4336 51.6665 60.3601 52.2802L60.28 52.7202L61.12 53.4402L60.72 54.44Z" fill="white"/>
</svg>
