<svg width="85" height="85" viewBox="0 0 85 85" fill="none" xmlns="http://www.w3.org/2000/svg">
<circle cx="42.5" cy="42.5" r="42.5" fill="#8E0B1C"/>
<circle cx="42.5" cy="42.5" r="37.75" stroke="white"/>
<g clip-path="url(#clip0_445_369)">
<path d="M34.5403 39.0007H39.8735C40.3337 39.0007 40.7068 38.6277 40.7068 38.1674C40.7068 37.7072 40.3337 37.3341 39.8735 37.3341H34.5403C34.0801 37.3341 33.707 37.7072 33.707 38.1674C33.707 38.6277 34.0802 39.0007 34.5403 39.0007Z" fill="white"/>
<path d="M44.8734 42.7507H34.5403C34.0801 42.7507 33.707 43.1237 33.707 43.584C33.707 44.0442 34.0801 44.4173 34.5403 44.4173H44.8733C45.3335 44.4173 45.7066 44.0442 45.7066 43.584C45.7066 43.1237 45.3335 42.7507 44.8734 42.7507Z" fill="white"/>
<path d="M44.8734 48.1671H34.5403C34.0801 48.1671 33.707 48.5402 33.707 49.0004C33.707 49.4607 34.0801 49.8337 34.5403 49.8337H44.8733C45.3335 49.8337 45.7066 49.4607 45.7066 49.0004C45.7066 48.5402 45.3335 48.1671 44.8734 48.1671Z" fill="white"/>
<path d="M56.7893 54.4169V28.1677C56.859 26.4894 55.5549 25.0723 53.8766 25.0026C53.8059 24.9997 53.7351 24.9992 53.6645 25.0012H35.7483C33.915 25.0012 32.2068 26.3345 32.2068 28.1677V29.5843H30.7486C28.8422 29.6262 27.2942 31.1378 27.207 33.0425V59.3333C27.2613 59.8413 27.5774 60.2838 28.0403 60.5C28.5196 60.7116 29.0792 60.6129 29.4569 60.25L31.9985 57.9583L35.0401 60.6666C35.267 60.877 35.5639 60.9958 35.8734 60.9999C36.1813 60.9884 36.4758 60.8706 36.7067 60.6666L39.7065 57.9583L42.7064 60.6666C43.1809 61.091 43.8985 61.091 44.373 60.6666L47.4146 57.9583L49.9145 60.25C50.2172 60.6225 50.7419 60.7274 51.1645 60.5C51.5784 60.2623 51.821 59.8097 51.7895 59.3333V53.4168L52.2894 53.0418L54.831 55.3334C55.066 55.5576 55.3813 55.6778 55.7059 55.6668C55.8499 55.6798 55.9946 55.6509 56.1225 55.5835C56.5606 55.3654 56.8237 54.9049 56.7893 54.4169ZM50.1228 58.4167L48.1646 56.5001C47.7233 56.049 47.0034 56.0306 46.5396 56.4585L43.498 59.1667L40.5398 56.4585C40.0527 56.0685 39.3603 56.0685 38.8732 56.4585L35.8733 59.1667L32.8317 56.4585C32.3062 56.0278 31.545 56.0455 31.0401 56.5001L28.8736 58.4167V33.0426C28.9569 32.0579 29.7609 31.2896 30.7485 31.251H48.6645C49.5812 31.251 50.1228 32.126 50.1228 33.0426V58.4167ZM55.1227 28.1677V53.5002L53.0395 51.5836C52.7061 51.2503 52.6228 51.167 51.7895 51.292V33.0426C51.7895 31.2093 50.4979 29.5844 48.6646 29.5844H33.8734V28.1677C33.8734 27.2511 34.8317 26.6678 35.7483 26.6678H53.6644C54.4222 26.6185 55.0764 27.1928 55.1257 27.9506C55.1305 28.0229 55.1295 28.0956 55.1227 28.1677Z" fill="white"/>
</g>
<defs>
<clipPath id="clip0_445_369">
<rect width="36" height="36" fill="white" transform="translate(24 25)"/>
</clipPath>
</defs>
</svg>
