<svg width="11" height="11" viewBox="0 0 11 11" fill="none" xmlns="http://www.w3.org/2000/svg">
<path d="M10.3245 7.76875C10.2963 7.74641 8.25 6.27138 7.68831 6.37725C7.42019 6.42469 7.26688 6.60756 6.95922 6.97366C6.90972 7.03278 6.79078 7.17441 6.69831 7.27513C6.50389 7.21171 6.31423 7.13451 6.13078 7.04413C5.18393 6.58316 4.4189 5.81813 3.95794 4.87128C3.86749 4.68786 3.79029 4.4982 3.72694 4.30375C3.828 4.21094 3.96962 4.092 4.03012 4.04112C4.3945 3.73519 4.57772 3.58187 4.62516 3.31306C4.72244 2.75619 3.24844 0.69575 3.23297 0.677188C3.16609 0.581649 3.07881 0.502172 2.97745 0.444504C2.87609 0.386837 2.76317 0.352422 2.64687 0.34375C2.04944 0.34375 0.34375 2.55647 0.34375 2.92909C0.34375 2.95075 0.375031 5.15212 3.08962 7.91347C5.84822 10.625 8.04925 10.6562 8.07091 10.6562C8.44388 10.6562 10.6562 8.95056 10.6562 8.35312C10.6477 8.23724 10.6135 8.1247 10.5561 8.02364C10.4987 7.92258 10.4196 7.83552 10.3245 7.76875Z" fill="#A6A69E"/>
</svg>
