<svg width="15" height="18" viewBox="0 0 15 18" fill="none" xmlns="http://www.w3.org/2000/svg">
<path d="M0 0H2.25202V2.996C3.59198 1.90041 5.28165 1.24698 7.11795 1.24698C11.4711 1.24698 15 4.91893 15 9.44849C15 13.9781 11.4711 17.65 7.11795 17.65C4.69658 17.65 2.53009 16.5139 1.08422 14.7258L2.90759 13.3376C3.9389 14.5456 5.44301 15.3067 7.11795 15.3067C10.2274 15.3067 12.748 12.6839 12.748 9.44849C12.748 6.21309 10.2274 3.59027 7.11795 3.59027C5.8942 3.59027 4.76166 3.99656 3.838 4.68658H6.75605V7.02987H0V0Z" fill="white"/>
</svg>
