<svg width="40" height="40" viewBox="0 0 40 40" fill="none" xmlns="http://www.w3.org/2000/svg">
<circle cx="20" cy="20" r="20" fill="#8E0B1C"/>
<circle cx="20" cy="20" r="17.5" stroke="white"/>
<path d="M21.5063 14.025H17.7406C17.3523 14.025 17.0375 14.3398 17.0375 14.7281V20.0499H16.2344C15.8461 20.0499 15.5312 20.3648 15.5312 20.7531C15.5312 21.1414 15.8461 21.4562 16.2344 21.4562H17.0375V23.0625H16.2344C15.8461 23.0625 15.5312 23.3773 15.5312 23.7656C15.5312 24.1539 15.8461 24.4687 16.2344 24.4687H17.0375V26.025C17.0375 26.4133 17.3523 26.7281 17.7406 26.7281C18.1289 26.7281 18.4437 26.4133 18.4437 26.025V24.4687H21.5063C21.8946 24.4687 22.2094 24.1539 22.2094 23.7656C22.2094 23.3773 21.8946 23.0625 21.5063 23.0625H18.4437V21.4562H21.5063C23.5551 21.4562 25.2219 19.7894 25.2219 17.7406C25.2219 15.6411 23.5117 14.025 21.5063 14.025ZM21.5063 20.0499H18.4437V15.4312H21.5063C22.772 15.4312 23.8157 16.4521 23.8157 17.7406C23.8156 19.014 22.7797 20.0499 21.5063 20.0499Z" fill="white"/>
<path d="M20 8C13.3832 8 8 13.3832 8 20C8 26.6168 13.3832 32 20 32C26.6168 32 32 26.6168 32 20C32 13.3832 26.6168 8 20 8ZM20 30.5938C14.1586 30.5938 9.40625 25.8414 9.40625 20C9.40625 14.1586 14.1586 9.40625 20 9.40625C25.8414 9.40625 30.5938 14.1586 30.5938 20C30.5938 25.8414 25.8414 30.5938 20 30.5938Z" fill="white"/>
</svg>
