<svg width="12" height="10" viewBox="0 0 12 10" fill="none" xmlns="http://www.w3.org/2000/svg">
<path d="M0.18761 10C0.165861 10 0.143923 9.99623 0.122736 9.98833C0.044362 9.95933 -0.00551239 9.88195 0.000487539 9.79816C0.00517499 9.7317 0.552106 3.20785 7.70534 2.64809L7.68809 0.189479C7.68753 0.112283 7.73421 0.0424293 7.80565 0.0136219C7.8769 -0.0151855 7.95884 0.00251308 8.0119 0.0589982L11.9488 4.24229C12.017 4.31477 12.017 4.42812 11.949 4.50061L7.98752 8.72136C7.93465 8.77804 7.85234 8.79593 7.78109 8.76693C7.70946 8.73812 7.66278 8.66808 7.66353 8.59032L7.68621 6.19422C2.8737 6.54142 0.363671 9.8891 0.338546 9.92318C0.302359 9.97251 0.245922 10 0.18761 10V10Z" fill="#A6A69E"/>
</svg>
