<svg width="35" height="25" viewBox="0 0 35 25" fill="none" xmlns="http://www.w3.org/2000/svg">
<path d="M17.4999 0.833252C11.067 0.833252 5.83325 6.06705 5.83325 12.4999C5.83325 18.9328 11.067 24.1666 17.4999 24.1666C23.9328 24.1666 29.1666 18.9328 29.1666 12.4999C29.1666 6.06705 23.9328 0.833252 17.4999 0.833252ZM17.4999 22.7082C11.8717 22.7082 7.29163 18.1289 7.29163 12.4999C7.29163 6.87102 11.8717 2.29163 17.4999 2.29163C23.1282 2.29163 27.7082 6.87095 27.7082 12.4999C27.7082 18.1289 23.1282 22.7082 17.4999 22.7082Z" fill="#313133"/>
<path d="M18.2292 4.47919C18.2292 4.07614 17.903 3.75 17.5 3.75C12.675 3.75 8.75 7.67499 8.75 12.5C8.75 12.903 9.07614 13.2292 9.47919 13.2292C9.88224 13.2292 10.2084 12.903 10.2084 12.5C10.2084 8.47958 13.4796 5.20831 17.5001 5.20831C17.903 5.20831 18.2292 4.88224 18.2292 4.47919Z" fill="#313133"/>
<path d="M17.4999 19.7916C17.0969 19.7916 16.7708 20.1177 16.7708 20.5208C16.7708 20.9238 17.0969 21.25 17.4999 21.25C22.325 21.25 26.2499 17.325 26.2499 12.4999C26.2499 12.0969 25.9238 11.7708 25.5208 11.7708C25.1177 11.7708 24.7916 12.0969 24.7916 12.4999C24.7916 16.5203 21.5204 19.7916 17.4999 19.7916Z" fill="#313133"/>
<path d="M34.2708 0.833252C32.2599 0.833252 30.625 2.46889 30.625 4.47906V12.4999C30.625 13.7062 31.6062 14.6874 32.8125 14.6874H33.5417V23.4374C33.5417 23.8405 33.8678 24.1666 34.2709 24.1666C34.6739 24.1666 35.0001 23.8405 35.0001 23.4374V1.56244C35 1.15939 34.6739 0.833252 34.2708 0.833252ZM33.5417 13.2291H32.8125C32.4109 13.2291 32.0833 12.9023 32.0833 12.4999V4.47913C32.0833 3.52853 32.6929 2.71744 33.5416 2.41625V13.2291H33.5417Z" fill="#313133"/>
<path d="M5.83331 1.56244C5.83331 1.15939 5.50717 0.833252 5.10412 0.833252C4.70114 0.833252 4.375 1.15939 4.375 1.56244V8.12494C4.375 8.65773 4.07367 9.10466 3.64581 9.35924V1.56244C3.64581 1.15939 3.31967 0.833252 2.91662 0.833252C2.51364 0.833252 2.1875 1.15939 2.1875 1.56244V9.35924C1.75964 9.10466 1.45831 8.65773 1.45831 8.12494V1.56244C1.45831 1.15939 1.13217 0.833252 0.729121 0.833252C0.326143 0.833252 0 1.15939 0 1.56244V8.12494C0 9.48023 0.933379 10.612 2.1875 10.938V23.4374C2.1875 23.8405 2.51364 24.1666 2.91669 24.1666C3.31974 24.1666 3.64588 23.8405 3.64588 23.4374V10.938C4.9 10.6119 5.83338 9.48016 5.83338 8.12494V1.56244H5.83331Z" fill="#313133"/>
</svg>
