<svg width="40" height="40" viewBox="0 0 40 40" fill="none" xmlns="http://www.w3.org/2000/svg">
<circle cx="20" cy="20" r="20" fill="#8E0B1C"/>
<circle cx="20" cy="20" r="18.5" stroke="white"/>
<path d="M19.7303 23.9889V17.3607C19.7303 16.9886 19.4286 16.6869 19.0565 16.6869C18.6843 16.6869 18.3826 16.9886 18.3826 17.3607V23.9889C17.5446 24.2711 16.9391 25.0637 16.9391 25.9957C16.9391 27.1632 17.889 28.113 19.0565 28.113C20.2239 28.113 21.1738 27.1632 21.1738 25.9957C21.1738 25.0638 20.5683 24.2711 19.7303 23.9889ZM19.0565 26.7653C18.6321 26.7653 18.2868 26.4201 18.2868 25.9957C18.2868 25.5713 18.6321 25.226 19.0565 25.226C19.4808 25.226 19.8261 25.5713 19.8261 25.9957C19.8261 26.4201 19.4808 26.7653 19.0565 26.7653Z" fill="white"/>
<path d="M22.6174 11.5608C22.6174 9.59738 21.0199 8 19.0565 8C17.0931 8 15.4957 9.59738 15.4957 11.5608V22.481C14.5748 23.4148 14.0522 24.679 14.0522 25.9957C14.0522 28.7551 16.2972 31 19.0565 31C21.8159 31 24.0608 28.7551 24.0608 25.9957C24.0608 24.679 23.5382 23.4148 22.6173 22.481V11.5608H22.6174ZM22.7132 25.9957C22.7132 28.012 21.0728 29.6523 19.0565 29.6523C17.0403 29.6523 15.3999 28.012 15.3999 25.9957C15.3999 24.9582 15.8444 23.9651 16.6192 23.2711C16.7619 23.1432 16.8434 22.9607 16.8434 22.7691V11.5608C16.8434 10.3405 17.8361 9.34766 19.0565 9.34766C20.2768 9.34766 21.2697 10.3405 21.2697 11.5608V22.7691C21.2697 22.9607 21.3512 23.1433 21.494 23.2711C22.2688 23.9651 22.7132 24.9582 22.7132 25.9957Z" fill="white"/>
<path d="M11.8391 19.5479H9.67383C9.3017 19.5479 9 19.8496 9 20.2217C9 20.5939 9.3017 20.8956 9.67383 20.8956H11.8391C12.2112 20.8956 12.5129 20.5939 12.5129 20.2217C12.5129 19.8496 12.2112 19.5479 11.8391 19.5479Z" fill="white"/>
<path d="M11.8391 13.7739H9.67383C9.3017 13.7739 9 14.0756 9 14.4478C9 14.8199 9.3017 15.1216 9.67383 15.1216H11.8391C12.2112 15.1216 12.5129 14.8199 12.5129 14.4478C12.5129 14.0756 12.2112 13.7739 11.8391 13.7739Z" fill="white"/>
<path d="M10.3955 22.4349H9.67383C9.3017 22.4349 9 22.7366 9 23.1087C9 23.4808 9.3017 23.7825 9.67383 23.7825H10.3955C10.7677 23.7825 11.0694 23.4808 11.0694 23.1087C11.0694 22.7366 10.7677 22.4349 10.3955 22.4349Z" fill="white"/>
<path d="M9.67383 18.0086H10.3955C10.7677 18.0086 11.0694 17.7069 11.0694 17.3348C11.0694 16.9626 10.7677 16.6609 10.3955 16.6609H9.67383C9.3017 16.6609 9 16.9626 9 17.3348C9 17.7069 9.3017 18.0086 9.67383 18.0086Z" fill="white"/>
<path d="M9.67383 12.2347H10.3955C10.7677 12.2347 11.0694 11.933 11.0694 11.5609C11.0694 11.1887 10.7677 10.887 10.3955 10.887H9.67383C9.3017 10.887 9 11.1887 9 11.5609C9 11.933 9.3017 12.2347 9.67383 12.2347Z" fill="white"/>
<path d="M31.3262 16.6869H29.6063L30.4662 15.1975C30.6523 14.8752 30.5419 14.4631 30.2196 14.277C29.8973 14.091 29.4852 14.2013 29.2991 14.5237L28.4392 16.0131L27.5793 14.5237C27.3931 14.2013 26.9809 14.091 26.6588 14.277C26.3365 14.4631 26.2261 14.8752 26.4122 15.1975L27.2721 16.6869H25.5522C25.1801 16.6869 24.8784 16.9886 24.8784 17.3607C24.8784 17.7328 25.1801 18.0345 25.5522 18.0345H27.2721L26.4122 19.5239C26.2261 19.8462 26.3365 20.2583 26.6588 20.4444C26.9809 20.6304 27.3932 20.5201 27.5793 20.1978L28.4392 18.7083L29.2991 20.1978C29.4852 20.5201 29.8973 20.6304 30.2196 20.4444C30.5419 20.2583 30.6523 19.8462 30.4662 19.5239L29.6063 18.0345H31.3262C31.6983 18.0345 32 17.7328 32 17.3607C32 16.9886 31.6983 16.6869 31.3262 16.6869Z" fill="white"/>
</svg>
