<svg width="20" height="20" viewBox="0 0 20 20" fill="none" xmlns="http://www.w3.org/2000/svg">
<path d="M18.4212 20H16.3947C16.3947 16.5812 13.5271 13.8008 9.9999 13.8008C6.47269 13.8008 3.60614 16.5822 3.60614 20H1.57959C1.57959 15.4626 5.35809 11.7742 10.0009 11.7742C14.6427 11.7742 18.4212 15.4626 18.4212 20Z" fill="#8E0B1C"/>
<path d="M10.0009 11.1156C6.93776 11.1156 4.44409 8.62093 4.44409 5.55781C4.44308 2.49367 6.93675 0 10.0009 0C13.066 0 15.5597 2.49265 15.5597 5.55781C15.5597 8.62296 13.066 11.1156 10.0009 11.1156ZM10.0009 2.02655C8.05337 2.02655 6.46963 3.61029 6.46963 5.55781C6.46963 7.50532 8.05337 9.08907 10.0009 9.08907C11.9494 9.08907 13.5332 7.50532 13.5332 5.55781C13.5332 3.61029 11.9474 2.02655 10.0009 2.02655Z" fill="#8E0B1C"/>
</svg>
