<svg width="20" height="20" viewBox="0 0 20 20" fill="none" xmlns="http://www.w3.org/2000/svg">
<path d="M18.4213 20H16.3948C16.3948 16.5812 13.5272 13.8008 10 13.8008C6.47281 13.8008 3.60626 16.5822 3.60626 20H1.57971C1.57971 15.4625 5.35821 11.7742 10.001 11.7742C14.6428 11.7742 18.4213 15.4625 18.4213 20Z" fill="#A6A69E"/>
<path d="M10.001 11.1156C6.93788 11.1156 4.44421 8.62093 4.44421 5.55781C4.4432 2.49367 6.93687 0 10.001 0C13.0662 0 15.5598 2.49265 15.5598 5.55781C15.5598 8.62296 13.0662 11.1156 10.001 11.1156ZM10.001 2.02655C8.05349 2.02655 6.46975 3.61029 6.46975 5.55781C6.46975 7.50532 8.05349 9.08907 10.001 9.08907C11.9495 9.08907 13.5333 7.50532 13.5333 5.55781C13.5333 3.61029 11.9475 2.02655 10.001 2.02655Z" fill="#A6A69E"/>
</svg>
