<svg width="43" height="14" viewBox="0 0 43 14" fill="none" xmlns="http://www.w3.org/2000/svg">
<path d="M16.326 0.247L10.696 13.787H7.023L4.253 2.98C4.085 2.316 3.939 2.072 3.428 1.79C2.592 1.334 1.213 0.907 0 0.64L0.082 0.247H5.995C6.748 0.247 7.425 0.752 7.597 1.627L9.06 9.463L12.675 0.247H16.325H16.326ZM21.291 0.247L18.418 13.787H14.943L17.817 0.247H21.292H21.291ZM30.717 9.367C30.732 5.794 25.817 5.597 25.849 3.999C25.861 3.514 26.319 2.997 27.323 2.865C27.82 2.8 29.193 2.748 30.75 3.471L31.36 0.598C30.3204 0.206017 29.219 0.00348324 28.108 0C24.673 0 22.258 1.84 22.238 4.475C22.215 6.425 23.964 7.511 25.278 8.161C26.632 8.824 27.086 9.251 27.08 9.843C27.07 10.751 26 11.153 25.002 11.169C23.254 11.197 22.242 10.693 21.432 10.313L20.802 13.281C21.615 13.657 23.112 13.983 24.665 14.001C28.317 14.001 30.705 12.183 30.715 9.368L30.717 9.367ZM39.787 13.787H43L40.193 0.247H37.23C36.912 0.24437 36.6007 0.337741 36.3366 0.514904C36.0726 0.692067 35.8681 0.944778 35.75 1.24L30.536 13.788H34.186L34.91 11.765H39.368L39.788 13.788L39.787 13.787ZM35.91 9L37.74 3.915L38.79 9H35.91Z" fill="#3E45C0"/>
</svg>
